<svg width="128" height="128" xmlns="http://www.w3.org/2000/svg"><path fill="none" d="M-1-1h130v130H-1z"/><g><path fill="#444" d="M-1-1h130v130H-1z"/><g stroke="null"><path fill="#fff" d="M34.304 114.57q-.38-1.01-.718-1.972-.336-.986-.694-1.995h-7.037l-1.412 3.967H22.18q.896-2.465 1.68-4.55.785-2.106 1.525-3.988.76-1.883 1.5-3.586.74-1.725 1.547-3.406h1.995q.806 1.68 1.546 3.406.74 1.703 1.48 3.586.76 1.882 1.545 3.99.785 2.083 1.68 4.548h-2.374zm-2.04-5.76q-.717-1.95-1.434-3.764-.695-1.838-1.457-3.52-.784 1.682-1.5 3.52-.696 1.815-1.39 3.765h5.78zM41.648 113.068q1.278 0 1.883-.336.628-.336.628-1.075 0-.762-.605-1.21t-1.994-1.01q-.674-.268-1.3-.537-.606-.29-1.054-.672t-.718-.92-.268-1.32q0-1.547 1.142-2.444 1.143-.92 3.115-.92.493 0 .986.07.493.044.92.133.425.067.74.157.335.09.514.157l-.38 1.794q-.337-.18-1.054-.36-.717-.2-1.726-.2-.874 0-1.523.358-.65.336-.65 1.076 0 .38.134.672.157.29.448.538.314.224.762.426t1.076.425q.83.313 1.48.627.65.29 1.097.694.472.405.718.987.247.56.247 1.39 0 1.613-1.21 2.442-1.188.83-3.407.83-1.546 0-2.42-.27-.874-.247-1.188-.38l.38-1.794q.36.134 1.144.403t2.084.268zM51.626 113.068q1.277 0 1.882-.336.628-.336.628-1.075 0-.762-.605-1.21t-1.994-1.01q-.672-.268-1.3-.537-.604-.29-1.053-.672t-.717-.92-.27-1.32q0-1.547 1.144-2.444 1.143-.92 3.115-.92.493 0 .986.07.494.044.92.133.426.067.74.157.336.09.515.157l-.38 1.794q-.337-.18-1.054-.36-.716-.2-1.725-.2-.874 0-1.524.358-.65.336-.65 1.076 0 .38.136.672.157.29.448.538.314.224.762.426t1.076.425q.83.313 1.48.627.65.29 1.097.694.47.405.716.987.246.56.246 1.39 0 1.613-1.21 2.442-1.187.83-3.406.83-1.546 0-2.42-.27-.874-.247-1.188-.38l.38-1.794q.36.134 1.144.403t2.084.268zM58.242 108.766q0-1.547.45-2.69.447-1.165 1.186-1.927t1.703-1.144 1.973-.38q2.353 0 3.608 1.48 1.256 1.455 1.256 4.458v.36q0 .2-.022.38h-7.978q.135 1.815 1.053 2.756t2.868.94q1.098 0 1.837-.178.762-.202 1.143-.38l.292 1.747q-.38.2-1.345.425-.94.224-2.15.224-1.525 0-2.646-.45-1.1-.47-1.816-1.277t-1.075-1.905q-.338-1.12-.338-2.442zm8-1.143q.023-1.412-.717-2.308-.717-.92-1.994-.92-.716 0-1.276.292-.538.27-.92.717t-.604 1.03q-.202.584-.27 1.19h5.783zM71.414 103.253q.717-.18 1.882-.38 1.188-.203 2.734-.203 1.12 0 1.882.314.762.29 1.278.874.156-.112.493-.314t.83-.38q.492-.202 1.097-.337.605-.157 1.3-.157 1.344 0 2.196.404.85.38 1.322 1.098.493.717.65 1.703.18.986.18 2.15v6.545h-2.085v-6.096q0-1.03-.112-1.77-.09-.74-.38-1.233-.27-.492-.762-.716-.47-.246-1.233-.246-1.053 0-1.747.29-.673.27-.92.494.18.583.27 1.278t.09 1.456v6.544h-2.085v-6.096q0-1.03-.112-1.77t-.402-1.233q-.27-.492-.762-.716-.47-.246-1.21-.246-.314 0-.672.022t-.695.068q-.315.022-.584.067t-.358.067v9.838h-2.084v-11.317zM92.798 103.432q.38-.246 1.143-.515.785-.27 1.793-.27 1.255 0 2.22.45.985.447 1.657 1.254t1.01 1.928q.357 1.12.357 2.465 0 1.412-.426 2.555-.402 1.12-1.164 1.905t-1.837 1.21-2.422.426q-1.456 0-2.577-.203t-1.836-.403V97.54l2.084-.36v6.252zm0 9.323q.313.09.874.18.582.066 1.434.066 1.68 0 2.69-1.097 1.007-1.12 1.007-3.16 0-.896-.18-1.68t-.58-1.345q-.405-.583-1.055-.896-.627-.337-1.524-.337-.85 0-1.568.292t-1.098.605v7.373zM107.426 114.794q-1.928-.045-2.734-.83t-.807-2.442V97.54l2.084-.36v14.006q0 .515.09.85t.29.54.538.313q.336.09.83.156l-.292 1.748zM108.692 116.743q.246.112.627.202.402.112.783.112 1.233 0 1.928-.56.695-.538 1.256-1.77-1.412-2.69-2.645-5.692-1.21-3.026-2.016-6.118h2.24q.248 1.008.584 2.174.36 1.166.784 2.398t.92 2.465 1.03 2.376q.852-2.354 1.48-4.662t1.187-4.75H119q-.807 3.293-1.793 6.34-.986 3.026-2.13 5.67-.447 1.01-.94 1.726-.47.74-1.053 1.21t-1.322.695q-.717.223-1.636.223-.247 0-.516-.045-.268-.023-.537-.09-.247-.045-.47-.112-.203-.067-.292-.112l.382-1.68z"/></g></g></svg>