<svg width="128" height="128" xmlns="http://www.w3.org/2000/svg" preserveAspectRatio="xMinYMin meet"><path fill="none" d="M-1-1h130v130H-1z"/><g><path stroke="null" fill="#28334C" d="M51.94 21.076c.107.638-.212 1.17-1.276 1.703-1.384-.746-4.364-1.172-6.81-.96-2.662.214-4.897 1.065-4.578 2.874.426 1.81 2.98 2.874 7.557 2.448 11.174-.958 11.067-8.514 27.457-10.004 12.77-1.17 19.9 2.768 20.86 7.556.744 3.725-2.342 7.344-11.6 8.09-8.196.744-12.985-1.49-13.41-3.726-.214-1.17.425-2.874 4.363-3.3.426 1.81 2.66 3.726 7.982 3.194 3.83-.32 7.023-1.703 6.598-3.832-.426-2.235-4.47-3.512-10.856-2.98-12.983 1.17-16.176 8.3-27.244 9.26-7.875.744-14.26-2.13-15.112-6.386-.318-1.597-.318-5.32 7.983-6.066 4.256-.32 7.662.425 8.088 2.128zM10.436 65.562C6.817 70.138 5.22 75.46 5.54 80.674c.32 5.215 2.873 9.47 6.917 12.77 4.257 3.3 8.833 4.257 14.05 3.3 2.02-.32 4.255-1.384 6.277-2.022-4.256 0-7.875-1.384-11.494-4.257-3.937-2.874-6.598-6.918-7.236-11.814-.958-4.575 0-8.832 2.554-12.556 2.873-3.62 6.598-5.64 11.494-6.28 4.895-.32 9.152.958 13.41 3.938-.96-1.383-2.342-2.34-3.62-3.618-4.256-2.874-8.833-4.257-14.473-2.874-5.11 1.065-9.366 3.725-12.985 8.302zM67.48 40.977c-13.73 0-25.97-1.383-34.802-3.3-9.472-2.34-14.474-4.894-14.474-8.193 0-1.384.64-2.555 2.555-3.938-5.96 2.34-9.154 4.257-9.154 7.237.32 3.3 5.64 6.598 16.496 9.152C38.32 44.49 51.41 45.873 67.16 45.873c16.07 0 28.84-1.384 39.057-3.938 10.855-2.554 16.07-5.96 16.07-9.152 0-2.342-2.34-4.576-6.598-6.28.957.64 1.702 1.704 1.702 2.874 0 3.3-4.896 5.96-14.793 8.195-9.154 2.022-20.86 3.405-35.12 3.405zm39.163 9.153c-10.217 2.34-23.307 3.938-39.058 3.938-16.07 0-29.16-1.703-39.377-3.938-9.152-2.34-14.047-4.896-15.75-7.556 1.702 11.494 5.64 22.35 10.855 31.927 3.938 5.96 7.875 11.176 11.813 16.816 1.703 3.3 2.873 6.598 3.618 9.898 2.554 3.618 6.28 5.96 10.855 7.236 5.64 2.022 11.493 2.874 17.453 2.555h.638c5.96.32 12.24-.64 17.987-2.555 4.257-1.383 7.876-3.618 10.536-7.236h.32c.638-3.3 1.702-6.6 3.3-9.898 3.937-5.64 7.874-10.855 11.812-16.815 5.214-9.47 8.833-20.326 10.855-31.926-2.128 2.98-7.024 5.534-15.857 7.556z"/></g></svg>