<svg width="128" height="128" xmlns="http://www.w3.org/2000/svg"><path fill="none" d="M-1-1h130v130H-1z"/><g><path fill="#331d43" d="M-1.126-.876h130v129.5h-130z"/><g stroke="null"><path d="M36.75 65.05q-1.63 0-2.968-.536t-2.297-1.56-1.495-2.522q-.513-1.518-.513-3.46t.58-3.434q.602-1.517 1.606-2.544t2.343-1.56 2.855-.537q.96 0 1.72.134.78.135 1.338.313.58.18.937.357t.49.268l-.624 1.785q-.2-.134-.58-.29t-.87-.312q-.468-.156-1.048-.245-.558-.11-1.138-.11-1.227 0-2.208.423t-1.674 1.227-1.07 1.963q-.357 1.138-.357 2.565 0 1.384.312 2.52.335 1.14.982 1.965.645.803 1.605 1.25.98.445 2.275.445 1.495 0 2.477-.312t1.472-.557l.557 1.785q-.156.112-.558.29-.402.156-1.005.312t-1.405.268-1.74.112zM53.672 58.914q0 1.384-.402 2.5t-1.138 1.918q-.714.803-1.718 1.25-1.003.423-2.186.423t-2.186-.424q-1.004-.445-1.74-1.248-.714-.803-1.116-1.92t-.402-2.498q0-1.36.402-2.476.402-1.138 1.116-1.94.736-.804 1.74-1.228 1.004-.446 2.186-.446t2.186.446q1.004.424 1.718 1.227.737.803 1.138 1.94.402 1.117.402 2.477zm-2.164 0q0-1.963-.893-3.1-.87-1.16-2.387-1.16t-2.41 1.16q-.87 1.137-.87 3.1t.87 3.124q.893 1.138 2.41 1.138t2.387-1.138q.893-1.16.893-3.124zM56.59 53.45q.715-.18 1.875-.38 1.182-.202 2.722-.202 1.115 0 1.874.313.76.29 1.272.87.157-.11.49-.31t.827-.38q.49-.202 1.092-.335.602-.157 1.294-.157 1.34 0 2.186.402.848.38 1.317 1.093.49.714.646 1.696.178.98.178 2.14v6.515H70.29v-6.068q0-1.027-.112-1.763-.09-.736-.38-1.227-.267-.49-.758-.714-.47-.245-1.227-.245-1.05 0-1.74.29-.67.268-.915.49.178.58.268 1.272t.09 1.45v6.515H63.44v-6.068q0-1.027-.11-1.763t-.403-1.227q-.268-.49-.76-.714-.467-.245-1.203-.245-.313 0-.67.022t-.69.067q-.314.022-.58.067t-.358.067v9.795H56.59V53.45zM75.81 53.45q.713-.18 1.873-.38 1.183-.202 2.722-.202 1.116 0 1.874.313.758.29 1.27.87.157-.11.492-.31t.825-.38q.49-.202 1.093-.335.603-.157 1.294-.157 1.34 0 2.187.402.848.38 1.317 1.093.49.714.647 1.696.178.98.178 2.14v6.515h-2.074v-6.068q0-1.027-.112-1.763-.09-.736-.38-1.227-.267-.49-.758-.714-.468-.245-1.227-.245-1.047 0-1.74.29-.668.268-.914.49.18.58.268 1.272t.09 1.45v6.515h-2.076v-6.068q0-1.027-.11-1.763t-.403-1.227q-.267-.49-.758-.714-.47-.245-1.205-.245-.312 0-.67.022t-.69.067q-.313.022-.58.067t-.358.067v9.795H75.81V53.45zM105.264 58.914q0 1.384-.402 2.5t-1.138 1.918q-.713.803-1.717 1.25-1.004.423-2.187.423t-2.186-.424q-1.004-.445-1.74-1.248-.714-.803-1.116-1.92t-.4-2.498q0-1.36.4-2.476.402-1.138 1.116-1.94.736-.804 1.74-1.228 1.004-.446 2.186-.446t2.187.446q1.004.424 1.717 1.227.737.803 1.138 1.94.402 1.117.402 2.477zm-2.164 0q0-1.963-.893-3.1-.87-1.16-2.387-1.16t-2.41 1.16q-.87 1.137-.87 3.1t.87 3.124q.893 1.138 2.41 1.138t2.387-1.138q.893-1.16.893-3.124zM108.18 53.45q.715-.18 1.897-.38t2.722-.202q1.382 0 2.297.402.915.38 1.45 1.093.558.692.78 1.673t.224 2.165v6.515h-2.074v-6.068q0-1.07-.156-1.83-.134-.758-.468-1.227t-.893-.67q-.56-.222-1.384-.222-.335 0-.692.022t-.69.067q-.314.022-.58.067-.247.045-.358.067v9.795h-2.075V53.45z" fill="#fff"/></g><g stroke="null"><path d="M51.227 103.275v4.443h-22.06v-36.66H34.3v32.217h16.927zM61.253 107.718h-4.92V80.21h4.92v27.508zm-2.486-32.48q-1.323 0-2.275-.846-.9-.9-.9-2.38t.9-2.33q.952-.898 2.275-.898t2.222.9q.95.846.95 2.327t-.95 2.382q-.9.846-2.223.846zM76.166 104.174q3.015 0 4.443-.793 1.48-.793 1.48-2.54 0-1.797-1.428-2.855t-4.708-2.38q-1.587-.635-3.068-1.27-1.43-.688-2.487-1.587t-1.693-2.17-.635-3.12q0-3.65 2.698-5.766 2.698-2.17 7.353-2.17 1.164 0 2.327.16 1.164.105 2.17.317 1.004.158 1.745.37.794.21 1.217.37l-.9 4.232q-.793-.424-2.486-.847-1.693-.476-4.073-.476-2.063 0-3.597.845-1.534.794-1.534 2.54 0 .9.317 1.587.37.687 1.057 1.27.74.528 1.8 1.004t2.538 1.005q1.957.742 3.49 1.483 1.535.687 2.593 1.64 1.11.952 1.693 2.327.583 1.323.583 3.28 0 3.81-2.857 5.766-2.803 1.957-8.04 1.957-3.65 0-5.714-.635-2.063-.58-2.803-.9l.898-4.23q.846.317 2.698.95t4.92.636zM112.42 94.017q0-4.813-2.38-7.406t-6.35-2.59q-2.22 0-3.49.158-1.217.16-1.958.37v17.35q.9.742 2.592 1.43t3.703.687q2.116 0 3.597-.74 1.534-.794 2.487-2.116.953-1.377 1.376-3.175.423-1.852.423-3.968zm5.13 0q0 3.12-.846 5.766-.793 2.645-2.38 4.55t-3.915 2.962q-2.276 1.058-5.238 1.058-2.38 0-4.232-.635-1.8-.634-2.698-1.216v11.003h-4.92V81.057q1.746-.423 4.338-.9 2.645-.528 6.084-.528 3.174 0 5.713 1.004t4.338 2.856 2.75 4.55q1.005 2.645 1.005 5.977z" fill="#fff"/></g></g></svg>