<svg width="128" height="128" xmlns="http://www.w3.org/2000/svg"><path fill="none" d="M-1-1h130v130H-1z"/><g><g stroke="null"><path stroke="#3c3c3c" fill="none" stroke-width=".8" stroke-linecap="round" stroke-linejoin="round" stroke-opacity=".392" d="M63.346 6.06c-2.352.126-2.747.307-8.255 3.47-2.36 1.356-4.686 2.67-5.157 2.93-.472.263-1.594.907-2.486 1.432-.892.524-1.907 1.13-2.275 1.336-.607.343-3.82 2.175-14.796 8.49-2.1 1.206-4.07 2.353-4.385 2.53-.314.18-2.244 1.28-4.29 2.464-2.046 1.182-4.045 2.332-4.456 2.556-1.216.66-3.02 2.573-3.705 3.94-1.264 2.51-1.174.925-1.174 28.443 0 24.253.01 25.776.54 27.155.895 2.34 2.03 3.833 3.845 5.065.612.415 1.15.774 1.197.774.048 0 1.03.537 2.204 1.22 1.175.68 2.17 1.242 2.205 1.242.036 0 .623.347 1.29.75.666.403 1.592.953 2.064 1.22 1.086.614 4.496 2.558 5.25 3 .316.186 1.438.828 2.487 1.43 1.05.604 2.148 1.247 2.462 1.432.675.397 5.355 3.077 6.588 3.775.472.267 1.397.816 2.064 1.22.666.403 1.253.726 1.29.726.035 0 .77.426 1.64.936.87.51 1.968 1.143 2.44 1.407.472.265 2.715 1.53 4.97 2.838 4.913 2.85 5.326 3.052 7.247 3.495 1.353.314 1.792.335 3.164.096 1.07-.188 3.01-.837 3.424-1.148.2-.15 1.947-1.168 3.68-2.134.567-.315 2.81-1.602 4.973-2.86 2.164-1.26 4.313-2.503 4.784-2.768.758-.426 7.564-4.33 9.075-5.206 1.076-.624 4.38-2.52 5.228-3 .467-.265 1.275-.742 1.806-1.057 1.132-.672 1.985-1.15 3.166-1.805.47-.262 1.593-.904 2.485-1.43.892-.525 2.096-1.232 2.673-1.548.578-.316 1.487-.845 2.04-1.196.553-.35 1.055-.633 1.103-.633.354 0 2.307-1.502 3.143-2.415 1.204-1.315 1.966-2.886 2.368-4.807.44-2.09.462-49.29.025-51.4-.37-1.79-1.21-3.478-2.32-4.714-1.19-1.323-1.817-1.74-7.13-4.738-.472-.266-1.883-1.073-3.142-1.805-1.916-1.115-11.26-6.504-13.18-7.598-.313-.18-1.6-.91-2.86-1.643-1.258-.732-2.67-1.566-3.142-1.83-.47-.26-2.92-1.645-5.44-3.094-2.517-1.448-5.885-3.376-7.48-4.29-3.568-2.05-4.626-2.393-7.245-2.252z"/><path stroke="#fff" fill="none" stroke-width=".5" stroke-linecap="round" stroke-linejoin="round" d="M63.347 6.137c-2.35.126-2.746.307-8.254 3.47-2.36 1.357-4.687 2.67-5.16 2.932-.47.26-1.592.904-2.484 1.43-.893.524-1.908 1.13-2.276 1.336-.607.342-3.82 2.174-14.796 8.488-2.1 1.207-4.07 2.354-4.385 2.533-.315.18-2.245 1.28-4.29 2.462-2.047 1.182-4.046 2.332-4.457 2.555-1.216.66-3.02 2.573-3.705 3.94-1.262 2.51-1.172.925-1.172 28.443 0 24.253.01 25.775.54 27.155.895 2.34 2.03 3.832 3.845 5.065.61.414 1.148.773 1.196.773.047 0 1.03.54 2.203 1.22 1.174.682 2.168 1.243 2.204 1.243.036 0 .623.347 1.29.75.666.404 1.592.954 2.064 1.22 1.088.614 4.498 2.558 5.253 3 .315.186 1.436.828 2.486 1.432 1.048.602 2.146 1.245 2.46 1.43.677.397 5.357 3.078 6.59 3.775.472.267 1.397.817 2.064 1.22.666.403 1.253.726 1.29.726.035 0 .77.428 1.64.938.87.51 1.968 1.143 2.44 1.407.47.265 2.715 1.53 4.97 2.838 4.913 2.85 5.326 3.05 7.247 3.494 1.355.315 1.794.335 3.166.096 1.07-.188 3.008-.838 3.424-1.15.2-.15 1.947-1.167 3.68-2.133.567-.314 2.81-1.6 4.973-2.86 2.163-1.26 4.31-2.502 4.783-2.768.758-.426 7.564-4.33 9.075-5.205 1.078-.625 4.382-2.522 5.23-3.002.467-.264 1.275-.74 1.806-1.055 1.132-.673 1.985-1.15 3.166-1.806.47-.263 1.593-.905 2.485-1.43.892-.526 2.096-1.233 2.673-1.55.578-.315 1.487-.844 2.04-1.195.553-.35 1.055-.632 1.103-.632.353 0 2.306-1.503 3.142-2.416 1.204-1.315 1.966-2.885 2.368-4.807.438-2.09.46-49.29.024-51.4-.37-1.79-1.21-3.477-2.32-4.714-1.19-1.322-1.817-1.74-7.13-4.737-.472-.267-1.883-1.074-3.142-1.806-1.916-1.114-11.26-6.504-13.18-7.598-.313-.18-1.6-.91-2.86-1.64-1.258-.734-2.67-1.567-3.142-1.83-.47-.263-2.922-1.647-5.44-3.095-2.518-1.448-5.886-3.376-7.48-4.29-3.57-2.05-4.627-2.392-7.246-2.252z"/><path fill="#9b4f96" fill-rule="evenodd" stroke-width="3" stroke-linecap="round" stroke-linejoin="round" d="M63.345 6.03c-2.35.127-2.747.308-8.254 3.47-2.36 1.357-4.686 2.67-5.158 2.932-.472.262-1.593.906-2.486 1.43-.892.526-1.907 1.13-2.274 1.338-.608.342-3.82 2.174-14.797 8.488-2.098 1.207-4.07 2.354-4.385 2.533-.314.18-2.245 1.28-4.29 2.463-2.047 1.182-4.046 2.333-4.456 2.556-1.216.66-3.02 2.572-3.705 3.938-1.264 2.512-1.174.926-1.174 28.444 0 24.253.01 25.775.54 27.154.895 2.34 2.03 3.833 3.845 5.066.612.414 1.148.773 1.197.773.048 0 1.03.538 2.204 1.22 1.175.68 2.17 1.242 2.205 1.242.036 0 .623.347 1.29.75.666.404 1.59.954 2.063 1.22 1.088.614 4.498 2.558 5.253 3 .315.186 1.437.828 2.486 1.43 1.05.604 2.148 1.247 2.463 1.432.675.396 5.354 3.077 6.588 3.774.472.267 1.397.817 2.063 1.22.668.403 1.255.726 1.29.726.037 0 .773.427 1.642.938.87.51 1.967 1.143 2.44 1.407.47.264 2.715 1.528 4.97 2.837 4.913 2.85 5.326 3.05 7.246 3.494 1.354.314 1.793.335 3.166.096 1.07-.19 3.008-.838 3.423-1.15.2-.15 1.948-1.167 3.682-2.133.564-.316 2.807-1.602 4.97-2.862s4.312-2.5 4.784-2.767c.757-.425 7.563-4.33 9.075-5.204 1.076-.625 4.38-2.522 5.228-3.002.467-.264 1.275-.74 1.806-1.055 1.132-.674 1.985-1.15 3.165-1.807.47-.262 1.593-.904 2.485-1.43.892-.525 2.096-1.232 2.673-1.548.578-.316 1.487-.845 2.04-1.196.552-.35 1.054-.634 1.102-.634.353 0 2.307-1.502 3.142-2.415 1.205-1.314 1.967-2.884 2.37-4.806.437-2.09.46-49.29.023-51.4-.37-1.79-1.21-3.478-2.322-4.714-1.188-1.322-1.815-1.74-7.128-4.737-.472-.266-1.883-1.073-3.142-1.805-1.916-1.114-11.262-6.504-13.18-7.598-.314-.18-1.6-.91-2.86-1.64-1.26-.734-2.67-1.567-3.142-1.83-.47-.263-2.92-1.647-5.44-3.096-2.517-1.448-5.885-3.376-7.48-4.29-3.57-2.05-4.627-2.392-7.245-2.252z"/><path fill="#68217a" fill-rule="evenodd" stroke-width="3" stroke-linecap="round" stroke-linejoin="round" d="M14.213 93.277c1.285 1.973 1.874 1.943 7.367 5.13 2.355 1.368 4.655 2.726 5.118 3.003.462.278 1.58.927 2.48 1.438.902.51 1.933 1.086 2.296 1.3.6.357 3.793 2.222 14.75 8.57 2.094 1.215 4.073 2.35 4.385 2.532.312.183 2.23 1.305 4.277 2.486 2.048 1.18 4.043 2.336 4.442 2.58 1.18.723 3.737 1.33 5.263 1.24 2.807-.163 1.388.552 25.22-13.207 21.003-12.127 22.315-12.898 23.246-14.045 1.578-1.946 2.303-3.676 2.463-5.863.048-.736.096-1.38.072-1.422-.024-.036-.048-1.163-.048-2.52.003-1.357-.008-2.498-.024-2.53-.012-.035-.01-.712.005-1.49.012-.78.024-1.857.024-2.398-.012-1.25-.036-5.174-.024-6.05.003-.365-.002-1.657-.004-2.868-.003-1.21.004-2.482.007-2.847.007-.784-.01-6.177-.023-7.594-.005-.542.01-1.618.024-2.397.013-.78.005-1.45-.01-1.48-.013-.037-.013-.883-.01-1.89.008-1.008.007-2.276 0-2.817-.007-.54-.036-3.117-.024-5.724.01-5.68-.024-6.138-.597-8.023-.235-.768-.6-1.157-.874-1.607L13.97 92.693c.12.197.12.37.254.584h-.01z"/><path fill="#813787" fill-rule="evenodd" stroke-width="3" stroke-linecap="round" stroke-linejoin="round" d="M114.39 92.245c1.067-2.1 1.108-2.532 1.122-8.884.006-2.72.036-5.392.036-5.932.01-.54.012-1.832.004-2.868-.008-1.034-.024-2.216-.024-2.638.008-.697.024-4.395.05-17.058.002-2.42-.005-4.702-.002-5.064.002-.36.012-2.584.012-4.947 0-2.364.002-4.67.012-5.137.036-1.316-.793-3.607-1.584-4.93L63.983 63.784l50.02 28.974c.107-.2.26-.286.378-.51l.01-.003z"/><path fill="#fff" fill-rule="evenodd" d="M61.732 29.58v.023c-4.532.317-8.975 1.463-12.85 3.447-13.47 6.895-20.84 21.025-18.69 35.83.67 4.603 2.518 9.508 5.02 13.32.49.747.935 1.405.983 1.453.048.048.49.613.962 1.243 1.18 1.575 4.165 4.565 6.003 6.003 5.172 4.048 11.973 6.647 18.712 7.15 1.44.11 5.923-.083 7.434-.304.734-.108 1.625-.256 1.993-.352.366-.096 1.093-.273 1.617-.398 6.137-1.457 12.473-5.304 17.047-10.365 1.225-1.353 2.864-3.516 3.54-4.69l.494-.867-7.106-4.103c-3.902-2.252-7.225-4.127-7.386-4.15-.17-.025-.573.383-.962.96-1.888 2.804-5.184 5.29-8.488 6.402-2.4.807-3.03.892-5.816.89-3.083 0-4.77-.345-7.2-1.453-1.814-.828-2.99-1.634-4.782-3.307-3.1-2.892-5-6.943-5.3-11.302-.577-8.383 4.79-15.776 13.038-18.008 2.004-.546 6.395-.614 8.254-.12 1.655.444 3.508 1.175 4.737 1.875 2.07 1.18 4.63 3.59 5.745 5.394.23.373.534.66.656.657.123 0 .65-.242 1.173-.54 1.027-.58 4.41-2.52 5.348-3.07.314-.185 1.413-.828 2.462-1.43 1.05-.604 2.253-1.3 2.673-1.55.42-.247 1.272-.724 1.876-1.054.603-.33 1.077-.655 1.077-.727 0-.072-.464-.852-1.055-1.736-4.194-6.27-10.605-11.15-17.75-13.506-4.29-1.413-8.93-1.935-13.46-1.618v.003zM93.81 55.42v2.18h-2.18v4.386h2.18v4.36h-2.18v4.386h2.18v2.18h4.385v-2.18h4.362v2.18h4.385v-2.18h2.18v-4.385h-2.18v-4.36h2.18V57.6h-2.18v-2.18h-4.385v2.18h-4.362v-2.18H93.81zm4.385 6.566h4.362v4.36h-4.362v-4.36z"/></g></g></svg>