<svg width="128" height="128" xmlns="http://www.w3.org/2000/svg"><path fill="none" d="M-1-1h130v130H-1z"/><g><g stroke="#000" fill="#c40804" stroke-width="0"><path fill-rule="evenodd" d="M97.147 84.755c0 8.063-11.6 8.442-11.6.442l.22-20.68c0-7.182 7.564-15.014 17.835-15.13 7.623 0 7.86-11.837 0-11.837h-57.96c-5.707 0-8.26 3.368-8.15 7.565V79.42c0 8.074-11.6 7.95-11.6 0 0 0-.22-26.135-.22-34.964 0-8.61 6.78-18.995 19.617-18.995h58.05c11.264.11 17.117 8.734 17.006 17.132-.04 11.598-8.935 18.568-15.792 18.568-5.093 0-7.25 2.86-7.25 7.62l-.157 15.975z" stroke="none" stroke-width="0"/><path fill-rule="evenodd" d="M7.643 43.813l-.1 40.58c.604 11.41 8.722 17.925 17.57 18.146l37.698-.364c8.965 0 16.227-7.45 16.227-17.28 0-9.173-6.02-16.968-17.4-17.282-8.284 0-8.172-11.836 0-11.836h17.078c7.767 0 7.57-12.31 0-12.31l-18.22.22c-8.958 0-17.1 7.56-17.006 17.335.094 9.774 6.804 18.255 17.36 18.255 8.21 0 8.03 11.772.078 11.772H27.444c-4.532 0-7.943-2.467-7.943-8.005l-.22-39.137c0-8.776-11.637-8.64-11.637-.095z" stroke="none" stroke-width="0"/></g></g></svg>