<svg width="128" height="128" xmlns="http://www.w3.org/2000/svg"><path fill="none" d="M-1-1h130v130H-1z"/><g><g stroke="null"><path d="M22.708 87.462c-9.34-9.896-14.803-23.567-14.79-39.878-.012-14.426 4.52-26.825 12.312-36.26l-.012.005H3.84v76.134h18.856l.012-.002zM108.96 87.468c4.024-4.308 7.628-9.383 10.895-15.186l-18.128-9.064c-6.366 10.35-15.676 19.877-28.55 19.94-18.737-.063-26.1-16.085-26.058-36.708h70.016c.093-2.328.093-3.41 0-4.53.457-12.27-2.795-22.583-8.71-30.614l-.03.023h15.764v76.134h-15.234l.035.004z" fill="#A90533"/><path d="M48.252 28.776c.775-9.336 8.137-15.616 16.768-15.634 8.69.018 14.97 6.298 15.182 15.634h-31.95z" fill="#A90533"/><path d="M13.81 100.38v-3.173H4.067v18.807h9.743v-3.172H7.692v-4.985h5.89v-3.172h-5.89v-4.306h6.118zM30.352 108.083c2.428-.36 3.762-2.767 3.852-5.21-.09-4-2.682-5.654-6.345-5.666h-4.986v18.807H26.5v-7.477l4.53 7.477h4.533l-5.21-7.93zm-3.853-7.93h.452c1.978.074 3.463.526 3.4 2.946.063 2.216-1.37 2.818-3.4 2.718H26.5v-5.665zM46.892 97.207h-3.625v18.807h8.837v-3.172h-5.212V97.207zM70.684 112.162l1.587 3.852h3.853l-7.025-19.26h-2.945l-7.478 19.26h3.852l1.586-3.852h6.57zm-.906-2.945h-4.532l2.04-7.025 2.492 7.025zM82.92 116.014h3.852v-12.69l9.97 13.143h2.72v-19.26H95.61v12.69l-9.97-13.143h-2.72v19.26zM115.323 106.044v2.946h4.08c-.086 2.367-2.023 4.373-4.306 4.305-3.606.068-5.392-3.417-5.44-6.57.048-3.114 1.81-6.75 5.44-6.8 1.905.05 3.516 1.355 4.305 2.947l3.172-1.586c-1.395-2.94-4.213-4.57-7.477-4.532-5.62-.036-9.217 4.6-9.29 9.97.073 5.235 3.57 9.897 9.063 9.97 5.932-.073 8.674-4.81 8.61-10.197v-.453h-8.157z"/></g></g></svg>