<svg width="128" height="128" xmlns="http://www.w3.org/2000/svg" preserveAspectRatio="xMinYMin meet"><path fill="none" d="M-1-1h130v130H-1z"/><g><g stroke="null"><path fill="#F6D2A2" d="M22.872 68.197c.17 3.487 3.656 1.862 5.213.78 1.49-1.05 1.93-.17 2.065-2.2.1-1.355.237-2.675.17-4.03-2.27-.203-4.706.34-6.568 1.693-.982.677-2.742 2.91-.88 3.757M92.367 111.052c2.674 1.66 7.582 6.67 3.554 9.106-3.858 3.52-6.024-3.893-9.41-4.908 1.456-1.998 3.284-3.826 5.857-4.198zM44.502 116.705c-3.148.474-4.908 3.317-7.548 4.773-2.472 1.456-3.42-.474-3.622-.88-.373-.17-.34.17-.948-.44-2.302-3.622 2.37-6.262 4.806-8.057 3.386-.676 5.518 2.27 7.312 4.605zM107.227 67.757c-.17 3.487-3.656 1.862-5.213.78-1.49-1.05-1.93-.17-2.065-2.2-.102-1.355-.238-2.676-.17-4.03 2.268-.203 4.705.34 6.567 1.693.948.677 2.742 2.91.88 3.757"/><path fill="#69D7E2" d="M97.986 25.24c12.084-4.264 2.64-20.817-7.887-13.505-6.907-5.924-16.42-7.007-26.405-7.007-9.782.778-19.09 2.573-25.59 8.26C27.61 6.217 17.93 22.465 30.25 26.56c-3.452 13.406.475 27.082-.067 40.723-.507 12.254-3.723 28.672 3.08 39.673 5.79 9.41 18.246 12.762 28.503 13.134 13.1.474 28.976-2.742 35.34-15.436 6.093-12.084 4.4-27.148 3.622-40.18-.78-13.168.677-26.54-2.742-39.233z"/><path d="M108.14 65.693c-.338-.71-.98-1.524-1.59-1.964-1.557-1.118-3.554-1.727-5.62-1.795-.067-2.1-.135-4.4-.135-7.312v-2.64c-.033-8.327-.135-11.983-.61-16.553-.37-3.588-.947-6.905-1.76-10.02 2.743-1.05 4.537-2.775 5.248-5.01.677-2.064.338-4.4-.813-6.465-1.184-2.03-3.08-3.554-5.28-4.163-2.37-.644-4.943-.17-7.414 1.49-2.2-1.863-4.74-3.284-7.582-4.368-5.044-1.86-10.9-2.572-18.855-2.572v.338l-.035-.338C55.2 5 48.903 6.32 43.69 8.858c-2.1 1.015-3.96 2.234-5.586 3.655-2.505-1.557-5.11-1.93-7.514-1.184-2.235.676-4.164 2.267-5.315 4.332-1.15 2.064-1.422 4.434-.643 6.465.78 2.03 2.573 3.622 5.247 4.604-.847 3.42-1.288 7.042-1.355 11.036-.068 3.893.1 7.007.71 14.048.44 5.247.61 7.65.678 10.56-2.302-.1-4.604.51-6.33 1.76-.61.44-1.287 1.22-1.59 1.965-.44.947-.272 1.793.608 2.3.136 1.625 1.05 2.37 2.438 2.235 1.016-.102 2.234-.643 3.284-1.388.237-.17.474-.305.71-.406.102-.033.17-.067.27-.1 0 0 .204-.07.272-.102.102-.034.203-.068.27-.136-.067 1.59-.202 3.25-.507 7.04-.338 4.266-.508 6.602-.575 9.208-.305 9.682.846 16.722 4.3 22.308 1.082 1.76 2.402 3.317 3.96 4.74-.305.202-1.592 1.15-1.998 1.454-1.422 1.084-2.403 1.998-2.98 3.013-.744 1.32-.744 2.64.103 4.028l.034.034.034.034c.373.373.576.475.847.475H33.163c.034.068.068.1.102.17.1.168.203.304.304.44.847.98 2.03 1.218 3.622.27.847-.44 1.456-.948 2.742-2.03l.068-.07c2.065-1.76 3.08-2.402 4.604-2.64l.54-.1c.204.1.408.17.644.27 4.807 1.93 10.393 2.98 16.046 3.182 7.31.27 14.352-.643 20.31-2.81 1.59-.575 3.08-1.252 4.502-1.997.88.34 1.625 1.05 3.046 2.708.068.068.068.068.102.136.068.067.068.1.102.135.067.1.17.168.237.27 1.117 1.32 1.86 1.963 2.708 2.336 1.118.474 2.2.237 3.318-.78 1.963-1.218 2.1-3.113.812-5.28-.914-1.523-2.505-3.114-3.994-4.13 1.76-1.726 3.283-3.79 4.468-6.126 3.25-6.5 4.502-14.082 4.435-23.83-.035-3.454-.17-6.466-.543-12.22v-.17c.17.068.34.17.508.304 1.05.71 2.268 1.287 3.283 1.388 1.388.136 2.302-.61 2.437-2.234.847-.54 1.016-1.388.576-2.335zm-10.763-55.21c2.03.54 3.79 1.963 4.874 3.858 1.084 1.897 1.39 4.03.78 5.925-.644 1.997-2.268 3.588-4.807 4.536-.508-1.827-1.117-3.62-1.794-5.347.98-.846 1.454-1.896.676-3.385-.78-1.49-2.133-1.66-3.52-1.22-.88-1.15-1.863-2.165-2.878-3.113 2.234-1.422 4.536-1.828 6.67-1.253zm-72.17 11.44c-.71-1.827-.473-3.993.61-5.89C26.9 14.14 28.66 12.65 30.76 12.04c2.165-.644 4.5-.34 6.803 1.015-1.32 1.185-2.505 2.54-3.52 4.028-1.76-.914-3.555-1.083-4.57.78-1.05 1.996.17 3.25 1.895 4.196-.237.575-.474 1.184-.677 1.793-.236.745-.473 1.524-.676 2.302-2.47-.948-4.096-2.403-4.807-4.23zm4.096 46.14c-.034 0-.237.067-.237.1-.1.034-.203.068-.304.136-.27.1-.542.27-.813.473-.95.677-2.1 1.185-2.98 1.252-1.015.102-1.59-.338-1.692-1.557.71-.237 1.015-.406 1.286-.812l-.54-.406c-.204.27-.408.372-1.017.575-.034 0-.034 0-.068.034-.542-.306-.644-.78-.34-1.457.272-.61.88-1.32 1.39-1.692 1.624-1.184 3.79-1.76 5.956-1.624 0 .846.034 1.693 0 2.505 0 .103 0 .17-.033.272-.034.474-.034.677-.068.914-.102.98-.17 1.117-.542 1.286zm10.223 51.08l-.068.067c-1.252 1.083-1.86 1.523-2.64 1.963-1.286.78-2.166.61-2.776-.135-.1-.102-.17-.237-.237-.34-.033-.032-.067-.1-.1-.134v-.034c.067-.61.304-1.05.913-1.997.034-.034.034-.034.034-.068.372-.54.54-.846.71-1.218l-.61-.27c-.134.304-.303.574-.642 1.116-.034.034-.034.034-.034.068-.61.88-.88 1.422-1.015 2.032h-.033H32.925c-.067-.034-.17-.102-.304-.237-1.32-2.1-.27-3.893 2.71-6.127.37-.27 1.624-1.15 1.962-1.422.068 0 .135-.034.203-.068 1.828 1.558 3.96 2.912 6.33 4.03 0 .032.034.066.068.1-1.388.34-2.47 1.05-4.367 2.674zm56.835-3.69c1.05 1.76 1.017 3.182-.304 4.163-.1-.203-.17-.44-.304-.778 0-.034 0-.034-.034-.068-.474-1.286-.78-1.828-1.354-2.437l-.474.474c.508.474.745.98 1.22 2.166 0 .034 0 .034.032.068.17.44.27.712.373.95-.88.743-1.66.88-2.47.506-.712-.304-1.39-.947-2.472-2.166-.068-.068-.136-.17-.204-.27-.034-.035-.068-.07-.102-.136-.068-.068-.068-.068-.102-.136-1.252-1.455-1.997-2.234-2.81-2.674 1.896-1.083 3.59-2.302 5.112-3.723 1.422 1.05 3.013 2.607 3.893 4.063zm.475-10.968c-2.91 5.856-8.056 9.986-14.962 12.49-5.89 2.133-12.863 3.014-20.073 2.743-12.423-.44-23.188-4.773-28.232-12.965-3.385-5.45-4.502-12.39-4.197-21.935.103-2.606.238-4.942.576-9.207.373-4.806.474-6.194.576-8.36.068-1.557.068-3.148.034-4.84-.068-2.98-.237-5.35-.677-10.664-.61-7.04-.78-10.12-.712-13.98.1-5.078.778-9.546 2.2-13.777C33.67 17.116 37.9 12.48 43.994 9.466 49.106 6.962 55.3 5.677 63.73 5c7.886 0 13.64.71 18.617 2.537 5.958 2.2 10.392 6.06 13.44 11.984 1.962 4.807 3.113 9.986 3.722 15.944.473 4.536.575 8.192.608 16.485v2.64c.034 4.095.102 6.973.27 9.85.07 1.117.103 1.59.272 4.265.372 5.755.508 8.734.542 12.186.067 9.716-1.15 17.197-4.367 23.595zm10.358-37.066c-.034 0-.068-.035-.1-.035-.61-.203-.814-.338-1.017-.575l-.542.406c.305.406.61.575 1.287.812-.135 1.22-.71 1.66-1.692 1.557-.88-.067-2.03-.61-2.98-1.252-.27-.203-.54-.34-.81-.474-.035 0-.07-.035-.103-.035-.135-1.862-.135-2.336-.203-3.317l-.1-1.828c1.894.034 3.756.61 5.178 1.66.508.37 1.117 1.082 1.388 1.69.338.576.27 1.084-.305 1.39z"/><path fill="#FFF" d="M68.827 39.638c.034 1.726.373 3.622.068 5.45-.474.88-1.354.98-2.133 1.32-1.083-.17-1.997-.88-2.437-1.896-.27-2.065.068-4.028.17-6.093 0-.07 1.286.033 2.437.37.98.306 1.895.814 1.895.848zM59.248 39.773c-.948 3.588 1.252 9.444 4.874 4.638-.27-2.03.034-3.994.135-5.99.034-.17-4.976 1.116-5.01 1.353z"/><path d="M69.233 41.23c-.067-1.017-.1-1.423-.1-1.93v-.238l-.238-.067-4.265-1.32v-.238l-.44.102h-.034v.033L59.35 38.79l-.17.035-.068.17c-.745 1.794-.575 4.502.372 6.16 1.084 1.896 2.844 1.93 4.638-.237.508.982 1.456 1.66 2.54 1.828h.1l.102-.034c.135-.067.27-.1.508-.203.034 0 .034 0 .067-.034.98-.34 1.387-.61 1.726-1.253l.034-.034v-.068c.1-.61.135-1.253.135-1.964 0-.508-.034-.98-.102-1.93zm-5.416-1.254c-.033.61-.067.847-.1 1.185-.07 1.253-.07 2.2.033 3.15-1.59 2.03-2.844 2.03-3.69.507-.812-1.422-.982-3.825-.372-5.416l4.265-1.082c-.034.44-.068.88-.136 1.658zm4.74 5.01c-.238.406-.542.61-1.355.88-.033 0-.033 0-.067.034-.203.068-.34.135-.44.17-.914-.17-1.693-.78-2.065-1.625-.102-.914-.102-1.862-.034-3.115.034-.338.034-.575.1-1.184.07-.78.103-1.253.103-1.693l3.69 1.117c0 .44.033.846.1 1.726.068.914.102 1.388.102 1.93 0 .643-.034 1.22-.136 1.76z"/><path fill="#FFF" d="M38.87 24.89c3.115 12.118 22.512 9.004 21.767-3.148-.88-14.556-24.745-11.746-21.766 3.148"/><path d="M60.975 21.708c-.203-3.52-1.76-6.263-4.332-7.99-2.302-1.556-5.35-2.165-8.36-1.793-3.014.406-5.79 1.76-7.618 3.893-2.03 2.37-2.81 5.484-2.1 9.072l.306-.068-.304.068c3.182 12.457 23.154 9.444 22.41-3.182zm-21.8 3.114c-.676-3.42.068-6.33 1.964-8.53 1.725-1.997 4.332-3.318 7.21-3.69 2.876-.372 5.754.203 7.92 1.693 2.404 1.624 3.86 4.163 4.062 7.514.71 11.813-18.144 14.657-21.156 3.012z"/><ellipse ry="3.554" rx="3.283" cy="22.893" cx="44.219"/><ellipse ry=".914" rx=".779" cy="23.705" cx="45.709" fill="#FFF"/><g><path fill="#FFF" d="M66.073 22.624c2.403 13.913 25.15 10.223 21.867-3.79-2.945-12.594-22.68-9.107-21.867 3.79"/><path d="M88.245 18.765c-3.013-12.965-23.323-9.41-22.51 3.893v.034c1.117 6.567 6.973 9.918 13.438 8.835 2.945-.508 5.585-1.93 7.312-4.03 1.895-2.334 2.572-5.347 1.76-8.732zm-2.268 8.327c-1.625 1.964-4.096 3.318-6.905 3.792-6.127 1.015-11.61-2.133-12.694-8.294-.745-12.524 18.414-15.876 21.258-3.69.744 3.216.135 6.026-1.66 8.192z"/><ellipse ry="3.554" rx="3.216" cy="22.015" cx="71.658"/><ellipse ry=".914" rx=".745" cy="22.827" cx="73.148" fill="#FFF"/></g><g><path fill="#F6D2A2" d="M59.946 32.46c-2.674.237-4.84 3.385-3.452 5.89 1.828 3.318 5.924-.304 8.462.034 2.945.068 5.35 3.114 7.684.542 2.607-2.844-1.117-5.62-4.062-6.838l-8.632.372z"/><path fill="#231F20" d="M72.98 34.728c-.915-1.15-2.506-2.2-4.232-2.91l-.068-.035h-.068l-8.666.34c-3.012.27-5.18 3.756-3.723 6.397.575 1.015 1.354 1.523 2.403 1.59.78.034 1.59-.135 2.844-.575.1-.034.237-.068.406-.135 1.692-.576 2.37-.745 3.046-.644h.034c.813 0 1.49.237 2.776.745 1.422.577 1.862.746 2.573.814.98.067 1.828-.27 2.606-1.117 1.32-1.456 1.254-3.013.07-4.47zm-.577 3.995c-.643.71-1.286.947-2.064.914-.61-.034-1.017-.204-2.37-.745-1.355-.576-2.1-.78-2.98-.813-.846-.102-1.557.067-3.35.676-.17.068-.306.102-.407.136-2.47.846-3.656.778-4.468-.71-1.22-2.2.643-5.18 3.18-5.417l8.566-.34c1.625.678 3.08 1.66 3.927 2.71 1.016 1.218 1.05 2.437-.034 3.588z"/><path d="M69.255 31.005c-1.05-3.86-9.85-3.284-9.647 1.32.44 3.42 10.663 2.505 9.647-1.32z"/></g></g></g></svg>