<svg width="128" height="128" xmlns="http://www.w3.org/2000/svg"><path fill="none" d="M-1-1h130v130H-1z"/><g><g stroke="null"><path d="M36.968 72.982c-.57.114-5.003.114-5.287.114-.738 0-1.59-.625-1.59-2.388V37.053H16.5c-5.57 0-8.073 2.047-8.073 8.812 0 4.434.795 6.822.795 10.745 0 2.217-1.876 4.49-5.287 4.604v5.458c3.41.114 5.287 2.444 5.287 4.662 0 3.98-.74 5.97-.74 10.46 0 6.822 2.446 8.64 8.017 8.64h3.354v-3.978h-.568c-2.615 0-3.354-1.08-3.354-4.548 0-3.41.17-6.538.17-10.404 0-4.832-1.933-6.708-4.775-7.504v-.227c2.84-.74 4.774-2.615 4.774-7.39 0-3.753-.227-6.993-.227-10.348 0-3.467.796-4.49 3.41-4.49h2.843v28.708c0 5.4 3.354 9.153 7.39 9.153h7.732l-.284-6.424zM50.726 49.73c7.845 0 11.938 5.63 11.938 13.702 0 1.307-.114 2.444-.284 3.183H44.017c.57 5.23 3.866 8.186 8.528 8.186 2.444 0 4.605-.738 6.708-2.102l2.274 4.264c-2.786 1.82-6.253 3.126-9.892 3.126-8.016 0-14.212-5.57-14.212-15.122 0-9.493 6.537-15.235 13.303-15.235zm6.026 12.565c0-4.605-1.933-7.334-5.856-7.334-3.41 0-6.367 2.502-6.936 7.335h12.792zM66.132 71.675c2.615 1.99 5.06 3.24 8.016 3.24 3.126 0 4.605-1.478 4.605-3.468 0-2.387-3.127-3.468-6.197-4.66-3.81-1.423-8.13-3.583-8.13-8.415 0-5.06 4.037-8.64 10.518-8.64 3.98 0 7.22 1.647 9.607 3.467l-3.126 4.092c-1.99-1.478-4.036-2.445-6.367-2.445-2.9 0-4.263 1.365-4.263 3.184 0 2.218 2.9 3.184 6.026 4.32 3.922 1.48 8.3 3.355 8.3 8.756 0 4.946-3.923 8.926-11.257 8.926-3.922 0-8.13-1.706-10.915-3.98l3.184-4.377zM88.19 71.675c2.615 1.99 5.06 3.24 8.015 3.24 3.127 0 4.605-1.478 4.605-3.468 0-2.387-3.127-3.468-6.196-4.66-3.81-1.423-8.13-3.583-8.13-8.415 0-5.06 4.036-8.64 10.517-8.64 3.98 0 7.22 1.647 9.61 3.467l-3.128 4.092c-1.99-1.478-4.036-2.445-6.367-2.445-2.9 0-4.264 1.365-4.264 3.184 0 2.218 2.9 3.184 6.027 4.32 3.923 1.48 8.3 3.355 8.3 8.756 0 4.946-3.922 8.926-11.256 8.926-3.92 0-8.128-1.706-10.914-3.98l3.184-4.377z" fill="#2a4d80"/><path d="M108.37 86.228c2.673 0 3.355-.966 3.355-4.434 0-3.41-.227-6.48-.227-10.29 0-4.832 1.535-6.65 4.662-7.39v-.228c-3.184-.74-4.662-2.615-4.662-7.39 0-3.752.227-6.936.227-10.29 0-3.468-.682-4.434-3.354-4.434h-1.193v-4.946h3.98c5.57 0 8.073 2.217 8.073 8.982 0 4.434-.626 6.88-.626 10.802 0 2.217 1.308 4.548 5.458 4.66v5.46c-4.093.112-5.458 2.443-5.458 4.66 0 3.98.626 6.31.626 10.802 0 6.822-2.56 8.982-8.073 8.982h-3.98v-4.946h1.194z" fill="#2a4d80"/></g></g></svg>