<svg width="128" height="128" xmlns="http://www.w3.org/2000/svg"><path fill="none" d="M-1-1h130v130H-1z"/><g><g stroke="null"><path stroke="gray" fill="none" stroke-dasharray="5,5" d="M116.22 37.856a57.297 57.297 0 1 1-19.846-22.04"/><circle fill="navy" r="44.316" cx="65.168" cy="63.868"/><circle fill="#fff" r="12.98" cx="83.525" cy="45.512"/><circle fill="navy" r="12.981" cx="109.486" cy="19.552"/><g fill="#fff"><path d="M53.163 86.027v-3.27H38.805V56.95h-3.71v29.077h18.07M73.098 86.027v-20.9h-3.31v11.527c0 4.267-2.234 7.06-5.704 7.06-2.633 0-4.308-1.596-4.308-4.11V65.127h-3.31V80.92c0 3.47 2.592 5.705 6.66 5.705 3.072 0 5.026-1.077 6.98-3.83v3.232h2.992M97.413 85.947v-2.513c-.36.08-.518.08-.718.08-1.156 0-1.795-.6-1.795-1.636V70.232c0-3.71-2.712-5.704-7.857-5.704-5.065 0-8.177 1.955-8.376 6.78h3.35c.28-2.552 1.795-3.71 4.906-3.71 2.992 0 4.667 1.118 4.667 3.113v.878c0 1.396-.838 1.994-3.47 2.313-4.707.6-5.425.76-6.7 1.278-2.434.997-3.67 2.87-3.67 5.424 0 3.79 2.632 6.023 6.86 6.023 2.672 0 5.265-1.117 7.1-3.07.36 1.594 1.794 2.75 3.43 2.75.678 0 1.196-.08 2.273-.358m-5.823-7.14c0 2.992-3.03 4.906-6.262 4.906-2.593 0-4.108-.917-4.108-3.19 0-2.194 1.475-3.152 5.025-3.67 3.51-.48 4.228-.638 5.345-1.157v3.11"/></g></g></g></svg>