<svg width="128" height="128" xmlns="http://www.w3.org/2000/svg"><path fill="none" d="M-1-1h130v130H-1z"/><g><path fill="#303030" d="M-1-1h130v130H-1z"/><g stroke="null"><path fill="#fff" d="M37.514 98.803q0-2.884.843-5.087.875-2.203 2.333-3.66 1.49-1.492 3.434-2.237 1.977-.746 4.18-.746 2.17 0 4.083.745 1.944.744 3.402 2.235 1.457 1.458 2.3 3.66.874 2.204.874 5.088t-.875 5.087q-.843 2.203-2.3 3.694-1.46 1.458-3.403 2.203-1.912.745-4.083.745-2.203 0-4.18-.745-1.944-.745-3.434-2.203-1.458-1.49-2.333-3.694-.843-2.203-.843-5.087zm3.305 0q0 2.04.518 3.726.518 1.652 1.458 2.818.972 1.167 2.333 1.815 1.392.615 3.11.615t3.077-.615q1.36-.648 2.3-1.815.973-1.166 1.49-2.82.52-1.684.52-3.725t-.52-3.694q-.517-1.685-1.49-2.852-.94-1.166-2.3-1.782-1.36-.648-3.078-.648t-3.11.648q-1.362.616-2.334 1.782-.94 1.167-1.458 2.85-.52 1.654-.52 3.695zM66.424 93.943q.55-.356 1.653-.745 1.134-.39 2.592-.39 1.813 0 3.207.65 1.425.647 2.397 1.813t1.458 2.788q.52 1.62.52 3.564 0 2.04-.617 3.694-.583 1.62-1.685 2.754t-2.657 1.75-3.5.615q-2.105 0-3.725-.29t-2.657-.585V85.422l3.014-.52v9.04zm0 13.48q.454.128 1.264.258.842.098 2.074.098 2.43 0 3.888-1.587 1.458-1.62 1.458-4.568 0-1.296-.26-2.43t-.842-1.944q-.583-.843-1.523-1.296-.907-.486-2.203-.486-1.23 0-2.268.42t-1.588.876v10.66zM79.765 116.105q-.388 0-1.004-.097t-1.036-.26l.39-2.462q.323.098.744.162t.778.065q1.555 0 2.203-.972.68-.938.68-2.785V93.198h3.013v16.524q0 3.24-1.49 4.796-1.46 1.587-4.278 1.587zm4.245-25.953q-.81 0-1.393-.518-.55-.55-.55-1.458t.55-1.426q.583-.55 1.393-.55t1.36.55q.584.518.584 1.426t-.583 1.458q-.55.518-1.36.518zM89 98.933h8.003v2.82H89v-2.82zM110.28 110.532q-2.366 0-4.31-.777t-3.337-2.268-2.17-3.662q-.747-2.203-.747-5.022t.843-4.99q.874-2.203 2.332-3.693t3.402-2.268 4.147-.778q1.394 0 2.496.194 1.134.195 1.944.454.843.26 1.36.518t.714.39l-.907 2.59q-.292-.193-.843-.42t-1.264-.454q-.68-.226-1.522-.356-.81-.162-1.653-.162-1.782 0-3.208.616t-2.43 1.782-1.555 2.85q-.518 1.654-.518 3.727 0 2.01.453 3.66.486 1.654 1.426 2.853.94 1.166 2.333 1.814 1.426.648 3.305.648 2.172 0 3.597-.453t2.14-.81l.81 2.592q-.228.162-.81.42-.584.228-1.46.455t-2.04.388-2.528.162z" stroke-width=".81003"/></g></g></svg>