<svg width="128" height="128" xmlns="http://www.w3.org/2000/svg"><path fill="none" d="M-1-1h130v130H-1z"/><g><path fill="#3f529f" d="M-1-1h130v130H-1z"/><g stroke="null"><path fill="#fff" d="M25.443 96.252q4.08 0 6.26 1.565 2.208 1.537 2.208 4.61 0 1.678-.614 2.88-.587 1.174-1.732 1.93-1.118.725-2.74 1.06t-3.66.336H23.01v7.183H20.3v-19.09q1.146-.28 2.543-.363 1.426-.11 2.6-.11zm.223 2.375q-1.733 0-2.655.084v7.603h2.04q1.4 0 2.517-.167 1.118-.196 1.872-.615.782-.447 1.2-1.2t.42-1.93q0-1.118-.447-1.844-.42-.727-1.174-1.146-.727-.447-1.706-.615t-2.068-.168zM48.794 115.816q-.475-1.258-.894-2.46-.42-1.23-.867-2.487h-8.776l-1.76 4.946h-2.823q1.118-3.074 2.096-5.674.978-2.627 1.9-4.975.95-2.347 1.873-4.472.922-2.152 1.93-4.248h2.486q1.005 2.096 1.928 4.248.922 2.125 1.844 4.472.95 2.348 1.93 4.975.977 2.6 2.095 5.674h-2.963zm-2.543-7.183q-.894-2.432-1.788-4.695-.866-2.292-1.817-4.388-.978 2.096-1.872 4.388-.867 2.263-1.733 4.695h7.21zM59.296 113.887q4.248 0 4.248-2.906 0-.894-.39-1.508-.364-.643-1.007-1.09-.643-.476-1.48-.81-.812-.336-1.734-.672-1.062-.363-2.013-.81-.95-.475-1.65-1.09-.697-.643-1.117-1.51-.39-.866-.39-2.096 0-2.543 1.732-3.97T60.275 96q1.76 0 3.186.39 1.454.365 2.125.812l-.867 2.208q-.587-.364-1.76-.7-1.146-.362-2.684-.362-.782 0-1.453.167t-1.173.504-.81.865q-.28.503-.28 1.202 0 .782.308 1.313t.866.95q.56.392 1.287.727.754.336 1.65.67 1.256.504 2.29 1.007 1.063.503 1.817 1.202.783.7 1.202 1.677.42.95.42 2.32 0 2.543-1.873 3.913-1.845 1.37-5.227 1.37-1.146 0-2.124-.168-.95-.14-1.705-.336-.755-.223-1.314-.447-.53-.252-.838-.42l.81-2.235q.643.363 1.957.81t3.214.447zM77.973 116.235q-2.04 0-3.717-.67t-2.88-1.957-1.87-3.158q-.644-1.9-.644-4.332t.726-4.305q.755-1.9 2.013-3.186t2.935-1.956 3.578-.67q1.202 0 2.152.168.978.167 1.677.39.727.225 1.174.448t.615.336l-.782 2.235q-.25-.167-.727-.363t-1.09-.39q-.585-.197-1.312-.31-.7-.138-1.426-.138-1.537 0-2.767.53t-2.096 1.538-1.342 2.46q-.447 1.425-.447 3.214 0 1.732.392 3.158.42 1.425 1.23 2.46.81 1.006 2.012 1.565 1.23.56 2.85.56 1.873 0 3.103-.392t1.845-.698l.698 2.235q-.195.14-.698.364-.503.194-1.258.39t-1.76.335-2.18.14zM100.493 115.816q-.475-1.258-.894-2.46-.42-1.23-.868-2.487h-8.776l-1.76 4.946h-2.823q1.118-3.074 2.096-5.674.977-2.627 1.9-4.975.95-2.347 1.872-4.472.922-2.152 1.93-4.248h2.486q1.006 2.096 1.93 4.248.92 2.125 1.843 4.472.95 2.348 1.93 4.975.978 2.6 2.096 5.674h-2.963zm-2.543-7.183q-.894-2.432-1.79-4.695-.865-2.292-1.816-4.388-.978 2.096-1.872 4.388-.867 2.263-1.733 4.695h7.21zM117.71 113.468v2.348h-11.655v-19.37h2.71v17.022h8.945z"/></g></g></svg>