<svg width="128" height="128" xmlns="http://www.w3.org/2000/svg"><path fill="none" d="M-1-1h130v130H-1z"/><g><path stroke="null" stroke-opacity="null" stroke-width="null" fill="#8993be" d="M-1 0h130v128H-1z"/><g stroke="null"><path d="M13.807 46.727h17.6c5.167.044 8.91 1.533 11.23 4.466 2.322 2.933 3.088 6.94 2.3 12.02-.306 2.32-.985 4.596-2.036 6.83-1.007 2.232-2.407 4.246-4.202 6.04-2.19 2.278-4.532 3.722-7.028 4.336-2.495.612-5.08.918-7.75.918h-7.88l-2.496 12.48h-9.13l9.393-47.09m7.684 7.486l-3.94 19.703c.263.043.525.066.788.066h.92c4.203.043 7.706-.372 10.508-1.248 2.8-.92 4.685-4.115 5.648-9.59.788-4.596 0-7.245-2.364-7.946-2.32-.7-5.232-1.03-8.735-.986-.526.044-1.03.066-1.51.066h-1.38l.066-.066M55.336 34.183H64.4l-2.562 12.544h8.143c4.467.088 7.794 1.008 9.984 2.76 2.233 1.75 2.89 5.078 1.97 9.98l-4.4 21.87H68.34l4.203-20.883c.437-2.19.306-3.744-.394-4.663-.7-.92-2.212-1.38-4.533-1.38l-7.29-.064-5.385 26.992H45.88l9.456-47.155M91.667 46.727h17.6c5.167.044 8.91 1.533 11.23 4.466 2.322 2.933 3.088 6.94 2.3 12.02-.306 2.32-.985 4.596-2.036 6.83-1.006 2.232-2.407 4.246-4.202 6.04-2.19 2.278-4.532 3.722-7.028 4.336-2.495.612-5.08.918-7.75.918H93.9l-2.496 12.48h-9.13l9.393-47.09m7.684 7.486l-3.94 19.703c.263.043.526.066.788.066h.92c4.203.043 7.706-.372 10.508-1.248 2.802-.92 4.685-4.115 5.648-9.59.788-4.596 0-7.245-2.364-7.946-2.32-.7-5.232-1.03-8.735-.986-.526.044-1.03.066-1.51.066h-1.38l.066-.066"/></g></g></svg>