<svg width="128" height="128" xmlns="http://www.w3.org/2000/svg"><path fill="none" d="M-1-1h582v402H-1z"/><g><path d="M97.496 106.13H16.463c-3.73 0-6.304-2.696-5.75-6.02l12.034-72.22c.553-3.324 4.026-6.02 7.756-6.02h81.034c3.73 0 6.304 2.696 5.75 6.02l-12.034 72.22c-.555 3.325-4.027 6.02-7.757 6.02z" stroke="null" fill="#0078d7"/><path d="M38.968 96.646c-1.267 0-2.518-.576-3.33-1.667-1.36-1.827-.973-4.404.865-5.754L71.305 63.62 46.153 40.022c-1.662-1.56-1.74-4.164-.17-5.817 1.567-1.65 4.19-1.727 5.85-.168l28.75 26.97c.89.837 1.364 2.022 1.29 3.238-.074 1.217-.683 2.34-1.67 3.063L41.425 95.837c-.74.545-1.603.808-2.458.808z" stroke="null" fill="#fff"/><path class="st3" d="M83.3 96.396H64.092c-2.286 0-4.14-1.84-4.14-4.115s1.854-4.113 4.14-4.113H83.3c2.285 0 4.137 1.84 4.137 4.114s-1.852 4.116-4.138 4.116z" stroke="null" fill="#fff"/><path d="M111.537 21.884H30.503c-2.793 0-5.442 1.507-6.828 3.662 20.153 19.225 60.723 58.94 79.963 77.805.83-.936 1.416-2.135 1.615-3.328l12.035-72.1c.553-3.325-2.02-6.038-5.75-6.038z" fill="#fff" stroke="null" fill-opacity=".4"/></g></svg>