<svg width="128" height="128" xmlns="http://www.w3.org/2000/svg" preserveAspectRatio="xMidYMid"><defs><linearGradient gradientUnits="objectBoundingBox" y2="1" x2="1" id="a"><stop stop-color="#CBCED0" offset="0"/><stop stop-color="#84838B" offset="1"/></linearGradient><linearGradient gradientUnits="objectBoundingBox" y2="1" x2="1" id="b"><stop stop-color="#276DC3" offset="0"/><stop stop-color="#165CAA" offset="1"/></linearGradient></defs><path fill="none" d="M-1-1h130v130H-1z"/><g><g stroke="null"><path fill-rule="evenodd" fill="url(#a)" d="M64 95.853c-30.954 0-56.047-16.806-56.047-37.537C7.953 37.586 33.046 20.78 64 20.78c30.954 0 56.047 16.806 56.047 37.536S94.954 95.853 64 95.853zm8.58-60.397c-23.53 0-42.602 11.49-42.602 25.66 0 14.173 19.073 25.662 42.6 25.662 23.528 0 40.89-7.854 40.89-25.66 0-17.802-17.362-25.662-40.89-25.662z"/><path fill-rule="evenodd" fill="url(#b)" d="M93.31 78.918s3.392 1.024 5.363 2.02c.683.347 1.867 1.038 2.72 1.944.836.888 1.244 1.788 1.244 1.788l13.368 22.54-21.607.01-10.104-18.975s-2.07-3.555-3.343-4.585c-1.06-.86-1.514-1.166-2.564-1.166h-5.133l.004 24.712-19.12.008V44.088H92.53s17.488.315 17.488 16.954c0 16.638-16.71 17.876-16.71 17.876zM84.993 57.78l-11.575-.007-.006 10.734 11.58-.003s5.364-.017 5.364-5.46c0-5.554-5.363-5.263-5.363-5.263z"/></g></g></svg>