<svg width="128" height="128" xmlns="http://www.w3.org/2000/svg" preserveAspectRatio="xMinYMin meet"><defs><linearGradient id="a" y2="64.584%" x2="58.254%" y1="111.399%" x1="84.75%"><stop offset="0%" stop-color="#FB7655"/><stop offset="0%" stop-color="#FB7655"/><stop offset="41%" stop-color="#E42B1E"/><stop offset="99%" stop-color="#900"/><stop offset="100%" stop-color="#900"/></linearGradient><linearGradient id="b" y2="19.288%" x2="1.746%" y1="60.89%" x1="116.651%"><stop offset="0%" stop-color="#871101"/><stop offset="0%" stop-color="#871101"/><stop offset="99%" stop-color="#911209"/><stop offset="100%" stop-color="#911209"/></linearGradient><linearGradient id="c" y2="7.829%" x2="38.978%" y1="219.327%" x1="75.774%"><stop offset="0%" stop-color="#871101"/><stop offset="0%" stop-color="#871101"/><stop offset="99%" stop-color="#911209"/><stop offset="100%" stop-color="#911209"/></linearGradient><linearGradient id="d" y2="79.135%" x2="66.483%" y1="7.234%" x1="50.012%"><stop offset="0%" stop-color="#FFF"/><stop offset="0%" stop-color="#FFF"/><stop offset="23%" stop-color="#E57252"/><stop offset="46%" stop-color="#DE3B20"/><stop offset="99%" stop-color="#A60003"/><stop offset="100%" stop-color="#A60003"/></linearGradient><linearGradient id="e" y2="83.047%" x2="49.932%" y1="16.348%" x1="46.174%"><stop offset="0%" stop-color="#FFF"/><stop offset="0%" stop-color="#FFF"/><stop offset="23%" stop-color="#E4714E"/><stop offset="56%" stop-color="#BE1A0D"/><stop offset="99%" stop-color="#A80D00"/><stop offset="100%" stop-color="#A80D00"/></linearGradient><linearGradient id="f" y2="92.478%" x2="49.528%" y1="15.594%" x1="36.965%"><stop offset="0%" stop-color="#FFF"/><stop offset="0%" stop-color="#FFF"/><stop offset="18%" stop-color="#E46342"/><stop offset="40%" stop-color="#C82410"/><stop offset="99%" stop-color="#A80D00"/><stop offset="100%" stop-color="#A80D00"/></linearGradient><linearGradient id="g" y2="-46.717%" x2="85.764%" y1="58.346%" x1="13.609%"><stop offset="0%" stop-color="#FFF"/><stop offset="0%" stop-color="#FFF"/><stop offset="54%" stop-color="#C81F11"/><stop offset="99%" stop-color="#BF0905"/><stop offset="100%" stop-color="#BF0905"/></linearGradient><linearGradient id="h" y2="79.056%" x2="50.745%" y1="21.135%" x1="27.624%"><stop offset="0%" stop-color="#FFF"/><stop offset="0%" stop-color="#FFF"/><stop offset="31%" stop-color="#DE4024"/><stop offset="99%" stop-color="#BF190B"/><stop offset="100%" stop-color="#BF190B"/></linearGradient><linearGradient id="i" y2="-6.342%" x2="104.242%" y1="122.282%" x1="-20.667%"><stop offset="0%" stop-color="#BD0012"/><stop offset="0%" stop-color="#BD0012"/><stop offset="7%" stop-color="#FFF"/><stop offset="17%" stop-color="#FFF"/><stop offset="27%" stop-color="#C82F1C"/><stop offset="33%" stop-color="#820C01"/><stop offset="46%" stop-color="#A31601"/><stop offset="72%" stop-color="#B31301"/><stop offset="99%" stop-color="#E82609"/><stop offset="100%" stop-color="#E82609"/></linearGradient><linearGradient id="j" y2="50.128%" x2="11.964%" y1="65.205%" x1="58.792%"><stop offset="0%" stop-color="#8C0C01"/><stop offset="0%" stop-color="#8C0C01"/><stop offset="54%" stop-color="#990C00"/><stop offset="99%" stop-color="#A80D0E"/><stop offset="100%" stop-color="#A80D0E"/></linearGradient><linearGradient id="k" y2="17.888%" x2="23.088%" y1="62.754%" x1="79.319%"><stop offset="0%" stop-color="#7E110B"/><stop offset="0%" stop-color="#7E110B"/><stop offset="99%" stop-color="#9E0C00"/><stop offset="100%" stop-color="#9E0C00"/></linearGradient><linearGradient id="l" y2="39.704%" x2="59.841%" y1="74.122%" x1="92.88%"><stop offset="0%" stop-color="#79130D"/><stop offset="0%" stop-color="#79130D"/><stop offset="99%" stop-color="#9E120B"/><stop offset="100%" stop-color="#9E120B"/></linearGradient><radialGradient id="m" r="69.573%" fy="40.21%" fx="32.001%" cy="40.21%" cx="32.001%"><stop offset="0%" stop-color="#A80D00"/><stop offset="0%" stop-color="#A80D00"/><stop offset="99%" stop-color="#7E0E08"/><stop offset="100%" stop-color="#7E0E08"/></radialGradient><radialGradient id="n" r="88.386%" fy="40.86%" fx="13.549%" cy="40.86%" cx="13.549%"><stop offset="0%" stop-color="#A30C00"/><stop offset="0%" stop-color="#A30C00"/><stop offset="99%" stop-color="#800E08"/><stop offset="100%" stop-color="#800E08"/></radialGradient><linearGradient id="o" y2="11.993%" x2="3.105%" y1="101.717%" x1="56.57%"><stop offset="0%" stop-color="#8B2114"/><stop offset="0%" stop-color="#8B2114"/><stop offset="43%" stop-color="#9E100A"/><stop offset="99%" stop-color="#B3100C"/><stop offset="100%" stop-color="#B3100C"/></linearGradient><linearGradient id="p" y2="100.694%" x2="92.471%" y1="35.599%" x1="30.87%"><stop offset="0%" stop-color="#B31000"/><stop offset="0%" stop-color="#B31000"/><stop offset="44%" stop-color="#910F08"/><stop offset="99%" stop-color="#791C12"/><stop offset="100%" stop-color="#791C12"/></linearGradient></defs><path fill="none" d="M-1-1h130v130H-1z"/><g><g stroke="null"><path fill="url(#a)" d="M94.98 83.755l-66.103 39.252 85.592-5.81 6.59-86.305-26.08 52.862z"/><path fill="url(#b)" d="M114.61 117.14l-7.358-50.776-20.04 26.46 27.397 24.316z"/><path fill="url(#c)" d="M114.708 117.14l-53.896-4.23-31.65 9.986 85.546-5.757z"/><path fill="url(#d)" d="M29.24 122.907L42.702 78.8l-29.628 6.334 16.164 37.773z"/><path fill="url(#e)" d="M87.208 92.97l-12.39-48.526-35.452 33.234L87.208 92.97z"/><path fill="url(#f)" d="M118.25 45.127l-33.514-27.37-9.332 30.17 42.846-2.8z"/><path fill="url(#g)" d="M102.577 7.997L82.867 18.89 70.43 7.85l32.147.147z"/><path fill="url(#h)" d="M5.28 99.93l8.257-15.06-6.68-17.94-1.577 33z"/><path fill="#FFF" d="M6.414 66.364l6.72 19.062 29.2-6.55 33.34-30.985 9.407-29.883-14.813-10.46-25.186 9.426c-7.935 7.38-23.333 21.984-23.888 22.258-.55.282-10.168 18.462-14.778 27.134z"/><path fill="url(#i)" d="M30.01 32.12C47.208 15.067 69.38 4.992 77.888 13.577c8.503 8.584-.515 29.446-17.713 46.492C42.977 77.116 21.08 87.746 12.578 79.16c-8.508-8.577.234-29.994 17.432-47.04z"/><path fill="url(#j)" d="M29.24 122.89l13.358-44.25 44.365 14.254c-16.04 15.042-33.882 27.758-57.724 29.996z"/><path fill="url(#k)" d="M75.73 47.804l11.39 45.113c13.4-14.09 25.426-29.235 31.316-47.97l-42.704 2.857z"/><path fill="url(#l)" d="M118.32 45.174c4.558-13.756 5.61-33.49-15.884-37.154L84.8 17.762l33.52 27.412z"/><path fill="#9E1209" d="M5.28 99.73c.63 22.705 17.01 23.043 23.988 23.242L13.15 85.332l-7.87 14.4z"/><path fill="url(#m)" d="M75.795 47.874c10.296 6.33 31.048 19.04 31.47 19.273.653.368 8.945-13.984 10.827-22.095l-42.297 2.822z"/><path fill="url(#n)" d="M42.58 78.64l17.858 34.456c10.56-5.727 18.83-12.705 26.402-20.18L42.58 78.642z"/><path fill="url(#o)" d="M13.08 85.38l-2.53 30.13c4.775 6.52 11.344 7.088 18.233 6.58-4.985-12.407-14.942-37.213-15.702-36.71z"/><path fill="url(#p)" d="M84.695 17.838l35.478 4.978c-1.894-8.023-7.708-13.2-17.62-14.82L84.696 17.84z"/></g></g></svg>