<svg width="128" height="128" xmlns="http://www.w3.org/2000/svg"><path fill="none" d="M-1-1h130v130H-1z"/><g><path stroke="null" d="M60.386 19.834a3.435 3.435 0 0 1 6.87 0 3.435 3.435 0 0 1-6.87 0m-40.978 31.1a3.435 3.435 0 0 1 6.87 0 3.435 3.435 0 0 1-6.87 0m81.954.16a3.435 3.435 0 0 1 6.87 0 3.435 3.435 0 0 1-6.87 0m-72.01 4.707c1.58-.7 2.293-2.553 1.59-4.137l-1.523-3.446h5.993v27.015H23.32a42.29 42.29 0 0 1-1.37-16.143l7.4-3.29zm25.07.665v-7.963h14.273c.737 0 5.205.852 5.205 4.193 0 2.774-3.427 3.77-6.245 3.77H54.422zM34.936 99.337a3.435 3.435 0 0 1 6.87 0 3.435 3.435 0 0 1-6.87 0m50.896.16a3.435 3.435 0 0 1 6.87 0 3.435 3.435 0 0 1-6.87 0m1.062-7.79c-1.692-.362-3.357.714-3.72 2.41l-1.723 8.046a42.29 42.29 0 0 1-35.267-.17l-1.723-8.045c-.363-1.694-2.027-2.772-3.718-2.41l-7.103 1.527a42.29 42.29 0 0 1-3.674-4.33h34.562c.39 0 .652-.07.652-.426V76.08c0-.357-.26-.428-.652-.428H54.42v-7.75h10.932c.998 0 5.336.286 6.723 5.83.435 1.706 1.39 7.253 2.04 9.03.65 1.99 3.296 5.97 6.116 5.97h17.845a42.29 42.29 0 0 1-3.917 4.533l-7.264-1.558zm19.192-32.28a42.29 42.29 0 0 1 .09 7.343h-4.34c-.434 0-.61.285-.61.71v1.993c0 4.69-2.644 5.71-4.96 5.97-2.208.25-4.655-.924-4.957-2.274-1.303-7.324-3.472-8.888-6.898-11.59 4.25-2.7 8.675-6.683 8.675-12.015 0-5.757-3.946-9.383-6.636-11.16-3.774-2.49-7.952-2.987-9.08-2.987H32.505a42.29 42.29 0 0 1 23.66-13.353l5.29 5.55c1.195 1.25 3.176 1.297 4.427.1l5.918-5.66a42.29 42.29 0 0 1 28.952 20.62l-4.052 9.15c-.7 1.584.015 3.436 1.594 4.138l7.792 3.465zm10.104.15l-.138-1.416 4.173-3.89c.85-.792.532-2.385-.553-2.79l-5.335-1.994-.418-1.377 3.327-4.623c.68-.94.055-2.44-1.088-2.627l-5.626-.916-.676-1.263 2.364-5.188c.484-1.056-.416-2.408-1.58-2.364l-5.708.2-.902-1.095 1.312-5.56c.265-1.13-.88-2.278-2.01-2.013l-5.56 1.31-1.097-.9.2-5.71c.044-1.156-1.308-2.06-2.363-1.58l-5.188 2.366-1.263-.678-.917-5.626c-.186-1.14-1.687-1.764-2.626-1.088l-4.625 3.328-1.375-.417-1.995-5.336c-.405-1.088-1.998-1.4-2.787-.557l-3.893 4.177-1.415-.138-3.006-4.858c-.608-.983-2.235-.983-2.84 0l-3.007 4.858-1.416.138-3.893-4.177c-.79-.844-2.382-.53-2.787.556l-1.995 5.335-1.376.417-4.625-3.328c-.94-.68-2.44-.053-2.627 1.088l-.917 5.626-1.263.678-5.187-2.366c-1.055-.48-2.407.424-2.363 1.58l.2 5.71-1.098.9-5.56-1.31c-1.13-.263-2.278.882-2.012 2.012l1.31 5.56-.9 1.095-5.71-.2c-1.15-.032-2.06 1.31-1.58 2.365l2.366 5.19-.677 1.262-5.626.916c-1.142.185-1.76 1.687-1.086 2.627l3.327 4.622-.416 1.376-5.336 1.994c-1.083.405-1.4 1.998-.554 2.79l4.174 3.89-.138 1.416-4.856 3.006c-.984.608-.984 2.236 0 2.842l4.856 3.006.138 1.414-4.174 3.894c-.847.79-.53 2.38.554 2.787l5.336 1.995.417 1.377-3.326 4.623c-.677.942-.055 2.443 1.088 2.626l5.625.915.677 1.267-2.365 5.186c-.483 1.055.427 2.41 1.578 2.364l5.707-.2.902 1.097-1.31 5.562c-.265 1.128.883 2.273 2.012 2.007l5.56-1.31 1.096.9-.2 5.71c-.043 1.157 1.31 2.06 2.364 1.58l5.187-2.365 1.264.677.918 5.624c.186 1.144 1.688 1.763 2.627 1.088l4.622-3.33 1.377.42 1.995 5.333c.403 1.084 1.997 1.404 2.786.555l3.894-4.175 1.416.142 3.006 4.856c.605.98 2.233.982 2.84 0l3.007-4.856 1.414-.142 3.892 4.175c.79.85 2.383.53 2.788-.554l1.995-5.333 1.376-.42 4.623 3.33c.938.676 2.44.055 2.625-1.088l.917-5.625 1.263-.677 5.188 2.364c1.054.482 2.405-.42 2.363-1.578l-.2-5.71 1.096-.9 5.56 1.31c1.13.265 2.276-.88 2.01-2.008l-1.31-5.562.9-1.097 5.71.2c1.152.047 2.063-1.31 1.578-2.364l-2.364-5.186.677-1.266 5.625-.914c1.145-.183 1.766-1.684 1.088-2.626l-3.328-4.623.418-1.377 5.335-1.995c1.086-.406 1.403-1.998.554-2.787l-4.173-3.894.14-1.414 4.855-3.006c.984-.606.985-2.234.002-2.842l-4.857-3.006z"/></g></svg>