<svg xmlns="http://www.w3.org/2000/svg" style="isolation:isolate" width="128" height="128"><defs><clipPath id="a"><path d="M0 0h128v128H0z"/></clipPath></defs><g clip-path="url(#a)"><path fill="#7F007F" d="M-1-1h130v130H-1z"/><path d="M58.892 109.068q5.472 0 5.472-3.744 0-1.152-.486-1.962t-1.314-1.404q-.828-.594-1.89-1.026-1.062-.432-2.25-.864-1.368-.468-2.592-1.062-1.224-.594-2.124-1.404-.9-.81-1.422-1.926-.522-1.116-.522-2.7 0-3.276 2.232-5.112 2.232-1.836 6.156-1.836 2.268 0 4.122.486t2.718 1.062l-1.116 2.844q-.756-.468-2.25-.918t-3.474-.45q-1.008 0-1.872.216-.864.216-1.512.648-.648.432-1.026 1.098-.378.666-.378 1.566 0 1.008.396 1.692.396.684 1.116 1.206.72.522 1.674.954.954.432 2.106.864 1.62.648 2.97 1.296t2.34 1.548q.99.9 1.53 2.142t.54 3.006q0 3.276-2.394 5.04-2.394 1.764-6.75 1.764-1.476 0-2.718-.198t-2.214-.468q-.972-.27-1.674-.576-.702-.306-1.098-.522l1.044-2.88q.828.468 2.52 1.044 1.692.576 4.14.576zM71.24 99.06q0-3.204.954-5.652t2.592-4.086q1.638-1.638 3.816-2.466 2.178-.828 4.626-.828 2.412 0 4.554.828 2.142.828 3.762 2.466 1.62 1.638 2.574 4.086.954 2.448.954 5.652 0 2.808-.72 5.004-.72 2.196-1.998 3.798-1.278 1.602-2.988 2.592t-3.654 1.35q.036.828.738 1.458t1.782 1.062q1.08.432 2.412.72 1.332.288 2.664.432l-.828 2.736q-1.872-.252-3.582-.666-1.71-.414-3.096-1.098-1.386-.684-2.322-1.746-.936-1.062-1.26-2.646-2.268-.144-4.284-1.062t-3.492-2.556q-1.476-1.638-2.34-3.978-.864-2.34-.864-5.4zm3.672 0q0 2.268.576 4.122t1.638 3.15q1.062 1.296 2.592 1.998t3.438.702q1.908 0 3.42-.702t2.574-1.998q1.062-1.296 1.638-3.15.576-1.854.576-4.122t-.576-4.122q-.576-1.854-1.638-3.15-1.062-1.296-2.574-1.998-1.512-.702-3.42-.702t-3.438.702q-1.53.702-2.592 1.998t-1.638 3.15q-.576 1.854-.576 4.122zm28.836 9.468h11.52v3.024h-15.012V86.604h3.492v21.924z" fill-rule="evenodd" fill="#FFF"/></g></svg>