<svg width="128" height="128" xmlns="http://www.w3.org/2000/svg"><path fill="none" d="M-1-1h130v130H-1z"/><g><path stroke="null" d="M24.303 84.4c3.076-3.68 3.438-7.48 1.056-14.535-1.51-4.463-4.012-7.9-2.173-10.674 1.96-2.954 6.122-.09 2.654 3.86l.694.483c4.162.482 6.212-5.217 3.106-6.845-8.2-4.282-15.378 3.95-12.212 13.478 1.357 4.04 3.257 8.323 1.72 11.73-1.328 2.925-3.89 4.644-5.61 4.704-3.588.18-1.206-8.05 2.925-10.1.362-.182.875-.424.392-1.027-5.096-.573-8.08 1.78-9.8 5.066-5.005 9.558 9.5 13.086 17.248 3.86zM113.86 56.296c1.175 2.895 2.954 5.76 1.898 8.292-.874 2.17-2.02 3.076-3.287 3.287-1.778.3-1.295-5.277 1.75-6.936.272-.15.664-.875.302-1.297-3.86-.21-6.03 1.628-7.207 4.07-3.407 7.147 7.72 9.107 13.177 2.08 2.17-2.803 2.262-5.577.18-10.613-1.326-3.196-3.346-5.578-2.08-7.69 1.357-2.23 4.614-.3 2.172 2.685l.542.3c3.166.182 4.463-4.04 2.05-5.095-6.362-2.713-12.302 4.13-9.497 10.916z" fill="#333"/><path stroke="null" d="M73.574 48.667c-2.202-1.75-8.383 1.176-10.132 5.518-2.2 5.518-5.458 13.57-8.654 17.097-3.377 3.71-3.71.844-3.377-1.297.785-5.035 5.7-16.705 8.384-19.99-.995-1.48-7.51-1.268-12.032 5.758-1.688 2.654-5.548 11.488-9.83 18.454-.934 1.508-2.11.452-1.206-3.076 1.026-4.07 4.04-15.256 7.93-24.06 10.192-2.02 21.018-3.44 29.31-3.47 1.115-.3 1.87-1.295 0-1.356-7.147-.24-17.88.603-27.922 1.87 1.93-3.86 4.01-6.935 6.12-8.232-2.29-1.447-6.934-.874-9.588 3.046-1.176 1.748-2.352 3.86-3.468 6.15-7.357 1.147-13.66 2.443-16.855 3.65-3.317 1.266-2.955 5.276-.935 4.522 4.19-1.568 9.86-3.196 16.162-4.643-4.01 9.046-7.146 19.72-7.9 24.062-1.87 10.553 4.674 10.492 7.87 6.33 3.468-4.552 10.704-20.563 11.82-22.252.332-.573.784-.27.543.24-8.08 16.133-7.388 22.375-.844 20.988 2.954-.633 8.05-5.7 9.376-8.322.272-.633.845-.573.724-.302-5.126 13.298-11.64 24.063-16.01 27.44-3.982 3.045-6.937-3.558 7.145-13.026 2.08-1.418 1.116-3.348-1.236-2.684-7.268 1.146-28.074 7.75-37.21 14.08-.694.484-1.327.876-1.297 1.87.03.574 1.025.363 1.507.06 11.82-7.085 21.5-9.86 32.596-12.18.15.06.332.09.483.03.51-.12.48.15.15.36-.754.423-1.508.815-1.69.876-7.477 2.925-12 9.377-10.402 12.664 1.357 2.835 8.684 1.81 12.152-.06 8.503-4.614 14.684-13.66 18.906-26.143 3.68-11.067 8.322-23.61 9.408-23.973zM122.995 74.207c-13.84-1.81-43.692.603-56.87 4.1-3.92 1.026-2.834 3.107-.843 2.715.03 0 .874-.212.904-.212 10.825-2.11 37.09-3.95 52.407-1.025 1.84.332 7.357-5.186 4.402-5.578zM77.433 72.58c3.86-1.93 9.59-13.872 13.358-20.415.273-.483.755-.09.484.24-9.53 16.404-5.488 18.304-1.72 18.063 5.037-.302 9.68-7.538 10.705-9.167.422-.632.663-.12.422.333-.242.754-1.116 2.08-1.93 3.89-1.146 2.563.06 3.558 1.055 4.01 1.568.754 5.85.272 6.513-2.352-4.282-.09 5.97-20.292 7.026-21.528-2.865-1.66-7.297.15-9.317 4.13-4.313 8.534-7.932 15.41-10.193 15.53-4.403.24 5.065-19.027 6.603-19.63-.934-1.357-6.935-.784-10.282 4.402-1.206 1.87-8.564 14.896-10.373 17.037-3.196 3.8-3.437.544-2.533-3.256.302-1.296.815-2.955 1.478-4.794 2.11-4.764 4.372-6.272 5.76-7.81 9.317-10.342 14.654-18.725 12.543-22.012-1.87-2.925-8.11-1.628-12.122 4.403-7.386 11.067-14.2 26.234-15.075 33.17-.845 6.935 4.19 7.447 7.598 5.76zm3.92-20.295c.332-.753.543-.964 1.116-2.23 3.316-7.298 7.477-14.987 10.342-18.575 1.78-1.87 4.28.663-.242 7.598-2.653 4.1-5.67 7.87-8.955 11.187v.03c-.845.935-1.598 1.72-1.93 2.17-.24.303-.513.243-.332-.18z" fill="#333"/></g></svg>