<svg width="128" height="128" xmlns="http://www.w3.org/2000/svg"><path fill="none" d="M-1-1h130v130H-1z"/><g><path stroke="null" fill="#007acc" d="M-.5 64.428v64.427H128.355V0H-.5v64.428zm103.84-5.134c3.273.818 5.77 2.27 8.06 4.643 1.186 1.268 2.945 3.58 3.088 4.13.04.165-5.563 3.928-8.96 6.035-.12.082-.612-.45-1.164-1.268-1.657-2.414-3.396-3.457-6.055-3.64-3.907-.267-6.423 1.78-6.402 5.194 0 1.002.143 1.596.552 2.414.86 1.78 2.454 2.843 7.465 5.01 9.225 3.97 13.172 6.587 15.626 10.31 2.742 4.15 3.356 10.778 1.494 15.707-2.045 5.358-7.117 9-14.255 10.205-2.21.39-7.446.328-9.82-.102-5.174-.92-10.082-3.477-13.11-6.83-1.186-1.31-3.497-4.726-3.354-4.97.062-.083.593-.41 1.187-.758.572-.327 2.74-1.575 4.786-2.76l3.7-2.15.778 1.146c1.084 1.658 3.456 3.928 4.888 4.685 4.11 2.168 9.756 1.86 12.538-.634 1.186-1.083 1.677-2.208 1.677-3.864 0-1.494-.183-2.148-.96-3.273-1.002-1.432-3.048-2.638-8.856-5.154-6.648-2.865-9.51-4.644-12.13-7.467-1.513-1.636-2.944-4.254-3.538-6.442-.49-1.82-.613-6.38-.225-8.222 1.372-6.422 6.22-10.9 13.214-12.23 2.27-.43 7.547-.266 9.777.286zm-30.25 5.38l.04 5.276H56.36v47.656H44.498V69.95H27.725v-5.175c0-2.863.062-5.256.144-5.318.06-.08 10.266-.122 22.64-.102l22.52.062.06 5.256z"/></g></svg>