<svg width="128" height="128" xmlns="http://www.w3.org/2000/svg"><path fill="none" d="M-1-1h130v130H-1z"/><g><path fill="#68217a" d="M-1-1h130v130H-1z"/><g stroke="null"><path fill="#fff" d="M74.08 69.58q-2.533 7.333-4.866 13.598-2.266 6.198-4.465 11.797t-4.4 10.73q-2.133 5.066-4.4 10.065h-6.064q-2.267-5-4.466-10.064-2.133-5.132-4.4-10.73-2.198-5.6-4.53-11.798-2.334-6.265-4.8-13.597h7.132q3.6 10.532 7.065 20.263t7.13 18.262q3.667-8.464 7.133-18.195 3.466-9.798 6.998-20.33h6.932zM92.958 116.17q-1.4 0-3.065-.067-1.6-.066-3.266-.2-1.6-.133-3.2-.333t-2.932-.533v-44.79q1.333-.332 2.932-.532t3.2-.334q1.666-.132 3.266-.2t3-.065q3.998 0 7.464.6 3.532.6 6.065 2.066 2.6 1.4 4.066 3.733t1.466 5.732q0 3.8-1.8 6.265-1.8 2.4-4.8 3.6 4.067 1.2 6.467 3.798t2.4 7.332q0 6.932-5.132 10.464-5.066 3.466-16.13 3.466zm-6.065-21.928v16.263q.733.066 1.733.133.867.067 2 .133h2.732q2.866 0 5.4-.332 2.598-.4 4.53-1.333t3.067-2.6q1.2-1.666 1.2-4.198 0-2.266-.867-3.8-.866-1.6-2.532-2.532-1.6-.933-3.866-1.333t-5.065-.4h-8.332zm0-5.2h6.8q2.398 0 4.53-.332t3.667-1.2q1.6-.866 2.466-2.266.933-1.4.933-3.532 0-2-.934-3.333-.933-1.4-2.6-2.2-1.6-.867-3.8-1.267t-4.664-.4-3.866.067-2.533.2v14.263z"/></g></g></svg>